<svg width="48" height="48" fill="none" xmlns="http://www.w3.org/2000/svg"><g clip-path="url(#clip0_121_221)" fill="#25252B"><path d="M47.984 13.923c-.001-2.455-2.598-4.694-7.314-6.305a.703.703 0 00-.454 1.33c4.043 1.382 6.361 3.195 6.361 4.976 0 2.208-3.583 4.444-9.352 5.835a.703.703 0 00-.539.683v3.52l-1.894-.398-5.355-5.357a.703.703 0 00-.917-.067l-4.97 3.696-5.138-5.574a.7.7 0 00-1.092.071l-4.329 6.14-1.73.355v-2.394a.703.703 0 00-.538-.684c-5.747-1.39-9.317-3.623-9.317-5.826 0-1.779 2.313-3.59 6.346-4.97 4.327-1.48 10.095-2.296 16.24-2.296 4.775 0 9.35.495 13.232 1.43a.703.703 0 10.33-1.367c-3.988-.961-8.678-1.47-13.562-1.47-6.296 0-12.225.843-16.695 2.373C2.59 9.234 0 11.47 0 13.924v6.093a.703.703 0 101.406 0v-3.072c1.59 1.622 4.48 3.02 8.448 4.038v20.158c-5.235-1.397-8.448-3.515-8.448-5.61V23.298a.703.703 0 10-1.406 0V35.53c0 2.98 3.788 5.603 10.393 7.198a.696.696 0 00.6-.13.703.703 0 00.268-.553V29.573a46.36 46.36 0 012.624-.514.703.703 0 00-.231-1.387c-.82.136-1.621.29-2.393.46v-3.868l2.286-.47a.703.703 0 00.433-.284l3.988-5.655 4.978 5.4a.703.703 0 00.936.087l4.99-3.71 5.074 5.075a.696.696 0 00.353.191l2.387.5v2.735c-3.797-.835-8.17-1.274-12.713-1.274a66.27 66.27 0 00-7.19.382.703.703 0 10.154 1.398 64.881 64.881 0 017.035-.374c4.565 0 8.946.452 12.714 1.308l-.002 12.472a.703.703 0 00.869.683C44.193 41.125 48 38.501 48 35.53l-.016-21.607zM38.09 41.141l.002-20.148c3.988-1.02 6.893-2.422 8.487-4.05l.014 18.587c0 2.089-3.234 4.207-8.503 5.611z"/><path d="M20.64 12.724c0 1.844 1.499 3.343 3.342 3.343s3.342-1.5 3.342-3.343-1.5-3.343-3.342-3.343a3.346 3.346 0 00-3.342 3.343zm5.278 0a1.939 1.939 0 01-1.936 1.937 1.939 1.939 0 01-1.936-1.937c0-1.068.868-1.937 1.936-1.937a1.94 1.94 0 011.936 1.937z"/></g><defs><clipPath id="clip0_121_221"><path fill="#fff" d="M0 0h48v48H0z"/></clipPath></defs></svg>